<?xml version="1.0" encoding="UTF-8"?>
<svg id="Layer_1" xmlns="http://www.w3.org/2000/svg" version="1.1" viewBox="0 0 800 800">
  <!-- Generator: Adobe Illustrator 29.0.1, SVG Export Plug-In . SVG Version: 2.1.0 Build 192)  -->
  <defs>
    <style>
      .st0 {
        fill: #40c0e7;
      }
    </style>
  </defs>
  <path class="st0" d="M205.4,713c-51.5,0-91.3-18.5-119.3-55.5-28-37-42-88.9-42-155.7h87.9c0,33.5,6.5,59.6,19.6,78.1,13.1,18.6,31.6,27.9,55.4,27.9s42.6-9.2,55.7-27.7c13.1-18.4,19.6-44.6,19.6-78.4V109.6h84.3v392.2c0,67-14.2,119-42.6,155.9s-68,55.3-118.7,55.3ZM178.5,211.4v-101.8h148.9v101.8h-148.9Z"/>
  <path class="st0" d="M611.6,713c-144.6,0-216.9-102.2-216.9-306.7s18.2-172,54.6-225.2c36.4-53.2,88-79.8,154.6-79.8s56.7,6.4,79.9,19.1c23.2,12.7,40.8,30.8,52.7,54.3l-47.3,81.3c-9.6-15.6-21.8-27.7-36.6-36.2-14.8-8.5-30.8-12.8-48.1-12.8-36.6,0-66,17-88,50.9-22,33.9-33.1,82.1-33.1,144.4,0,136.9,46.3,205.3,139,205.3s61.3-8.4,91.4-25.1l14.7,102.2c-37.1,19-76,28.5-116.9,28.5Z"/>
</svg>